<svg xmlns="http://www.w3.org/2000/svg" viewBox="0 0 35 27" role="img"><title>iCloud icon</title><g transform="translate(0.5,0.5)" style="visibility: visible;"><path d="M 26.63 23.23 C 28.81 22.94 30.36 20.75 30.1 18.34 C 29.84 15.92 27.86 14.2 25.69 14.49 C 25.66 10.88 23.38 7.78 20.2 7.03 C 17.02 6.27 13.8 8.07 12.44 11.34 C 11.44 10.07 9.85 9.59 8.4 10.12 C 6.95 10.66 5.94 12.1 5.82 13.79 C 3.47 13.69 1.5 15.73 1.41 18.34 C 1.32 20.94 3.16 23.14 5.51 23.23 Z" fill="none" stroke="white" stroke-width="9.3" stroke-miterlimit="10" pointer-events="stroke" visibility="hidden"></path><path d="M 26.63 23.23 C 28.81 22.94 30.36 20.75 30.1 18.34 C 29.84 15.92 27.86 14.2 25.69 14.49 C 25.66 10.88 23.38 7.78 20.2 7.03 C 17.02 6.27 13.8 8.07 12.44 11.34 C 11.44 10.07 9.85 9.59 8.4 10.12 C 6.95 10.66 5.94 12.1 5.82 13.79 C 3.47 13.69 1.5 15.73 1.41 18.34 C 1.32 20.94 3.16 23.14 5.51 23.23 Z" fill="none" stroke="#0080f0" stroke-width="1.3" stroke-miterlimit="10" pointer-events="all"></path></g></svg>