<svg xmlns="http://www.w3.org/2000/svg" viewBox="0 0 24 24" role="img"><title>iCloud icon</title><g transform="translate(0.5,0.5)" style="visibility: visible;"><rect x="4.32" y="1.08" width="22.68" height="27" fill="none" stroke="white" pointer-events="stroke" visibility="hidden" stroke-width="9"></rect><rect x="4.32" y="1.08" width="22.68" height="27" fill="none" stroke="none" pointer-events="all"></rect><path d="M 6.86 17.13 C 5.51 17.13 4.39 16.07 4.33 14.72 C 4.32 14.04 4.58 13.38 5.06 12.9 C 5.53 12.41 6.18 12.14 6.86 12.14 C 8.25 12.18 9.34 13.33 9.31 14.72 C 9.26 16.03 8.19 17.09 6.86 17.13 Z M 10.18 18.78 C 12.48 16.46 12.48 12.73 10.18 10.41 L 12.09 8.53 C 15.37 11.92 15.35 17.3 12.03 20.65 Z M 13.88 22.44 C 16.01 20.38 17.21 17.54 17.21 14.58 C 17.21 11.62 16.01 8.78 13.88 6.72 L 15.79 4.85 C 21.17 10.24 21.17 18.95 15.79 24.34 Z M 17.69 26.21 C 20.8 23.13 22.55 18.95 22.55 14.58 C 22.55 10.21 20.8 6.03 17.69 2.95 L 19.6 1.08 C 27 8.57 27 20.59 19.6 28.08 Z" fill="#00188d" stroke="none" pointer-events="all"></path></g></svg>